<?xml version="1.0" encoding="UTF-8" standalone="no"?>
<svg
   xmlns:dc="http://purl.org/dc/elements/1.1/"
   xmlns:cc="http://creativecommons.org/ns#"
   xmlns:rdf="http://www.w3.org/1999/02/22-rdf-syntax-ns#"
   xmlns:svg="http://www.w3.org/2000/svg"
   xmlns="http://www.w3.org/2000/svg"
   xmlns:sodipodi="http://sodipodi.sourceforge.net/DTD/sodipodi-0.dtd"
   xmlns:inkscape="http://www.inkscape.org/namespaces/inkscape"
   version="1.1"
   id="svg2"
   width="1627"
   height="520"
   viewBox="0 0 1627 520"
   sodipodi:docname="SVNET (2004).svg"
   inkscape:version="1.0.1 (3bc2e813f5, 2020-09-07)">
  <title
     id="title2437">SVNET (2004)</title>
  <metadata
     id="metadata8">
    <rdf:RDF>
      <cc:Work
         rdf:about="">
        <dc:format>image/svg+xml</dc:format>
        <dc:type
           rdf:resource="http://purl.org/dc/dcmitype/StillImage" />
        <dc:title>SVNET (2004)</dc:title>
      </cc:Work>
    </rdf:RDF>
  </metadata>
  <defs
     id="defs6">
    <filter
       inkscape:collect="always"
       style="color-interpolation-filters:sRGB"
       id="filter2417"
       x="-0.088324554"
       width="1.1766491"
       y="-0.072950296"
       height="1.1459006">
      <feGaussianBlur
         inkscape:collect="always"
         stdDeviation="9.012152"
         id="feGaussianBlur2419" />
    </filter>
    <filter
       inkscape:collect="always"
       style="color-interpolation-filters:sRGB"
       id="filter2421"
       x="-0.063353412"
       width="1.1267068"
       y="-0.097261086"
       height="1.1945221">
      <feGaussianBlur
         inkscape:collect="always"
         stdDeviation="9.012152"
         id="feGaussianBlur2423" />
    </filter>
    <filter
       inkscape:collect="always"
       style="color-interpolation-filters:sRGB"
       id="filter2425"
       x="-0.040626854"
       width="1.0812536"
       y="-0.05835947"
       height="1.1167189">
      <feGaussianBlur
         inkscape:collect="always"
         stdDeviation="9.012152"
         id="feGaussianBlur2427" />
    </filter>
    <filter
       inkscape:collect="always"
       style="color-interpolation-filters:sRGB"
       id="filter2429"
       x="-0.06669654"
       width="1.133393"
       y="-0.05835947"
       height="1.1167189">
      <feGaussianBlur
         inkscape:collect="always"
         stdDeviation="9.012152"
         id="feGaussianBlur2431" />
    </filter>
    <filter
       inkscape:collect="always"
       style="color-interpolation-filters:sRGB"
       id="filter2433"
       x="-0.066853099"
       width="1.1337062"
       y="-0.05835947"
       height="1.1167189">
      <feGaussianBlur
         inkscape:collect="always"
         stdDeviation="9.012152"
         id="feGaussianBlur2435" />
    </filter>
  </defs>
  <sodipodi:namedview
     pagecolor="#ffffff"
     bordercolor="#666666"
     borderopacity="1"
     objecttolerance="10"
     gridtolerance="10"
     guidetolerance="10"
     inkscape:pageopacity="0"
     inkscape:pageshadow="2"
     inkscape:window-width="1920"
     inkscape:window-height="1017"
     id="namedview4"
     showgrid="false"
     showguides="true"
     inkscape:guide-bbox="true"
     inkscape:zoom="0.65835694"
     inkscape:cx="863.05884"
     inkscape:cy="241.20944"
     inkscape:window-x="-8"
     inkscape:window-y="-8"
     inkscape:window-maximized="1"
     inkscape:current-layer="g10"
     inkscape:document-rotation="0" />
  <g
     inkscape:groupmode="layer"
     inkscape:label="Image"
     id="g10">
    <path
       style="opacity:1;fill:#000000;fill-opacity:0.528037;fill-rule:evenodd;stroke-width:0.294297;stroke-linecap:round;stroke-linejoin:round;paint-order:fill markers stroke;filter:url(#filter2429)"
       d="m 475.80573,83.161577 h 63.03571 L 639.91663,376.65601 733.26485,83.161577 H 800.0979 L 676.30486,453.7812 h -78.9845 z"
       id="path845-5"
       sodipodi:nodetypes="cccccccc"
       transform="matrix(0.95206288,0,0,0.95201208,-71.720637,-48.5796)" />
    <path
       style="opacity:1;fill:#000000;fill-opacity:0.528037;fill-rule:evenodd;stroke-width:0.294297;stroke-linecap:round;stroke-linejoin:round;paint-order:fill markers stroke;filter:url(#filter2425)"
       d="m 913.25839,83.161577 h 63.03571 l 49.6467,259.746353 144.7767,-259.746353 h 66.833 L 1027.9378,453.7812 H 964.14264 L 914.24504,197.21006 771.23817,453.7812 h -66.07358 z"
       id="path845-5-2"
       sodipodi:nodetypes="ccccccccccc"
       transform="matrix(0.95206288,0,0,0.95201208,-71.720637,-48.5796)" />
    <path
       style="opacity:1;fill:#000000;fill-opacity:0.528037;fill-rule:evenodd;stroke-width:0.294297;stroke-linecap:round;stroke-linejoin:round;paint-order:fill markers stroke;filter:url(#filter2433)"
       d="m 430.99721,83.161577 h -250.2442 c -48.6097,0 -73.28851,22.463863 -73.28851,65.314113 v 87.71838 c 0,48.55454 28.32852,63.41544 73.28851,63.41544 h 176.57595 v 87.33864 H 107.4645 v 66.83305 h 249.86446 c 48.93099,0 73.66825,-25.24054 73.66825,-66.83305 V 294.7675 c 0,-49.29304 -36.38854,-58.57343 -73.66825,-58.57343 H 180.75301 v -87.71838 h 250.2442 z"
       id="path845-5-2-1"
       sodipodi:nodetypes="cssssccccsssscccc"
       transform="matrix(0.95206288,0,0,0.95201208,-71.720637,-48.5796)" />
    <path
       style="opacity:1;fill:#000000;fill-opacity:0.528037;fill-rule:evenodd;stroke-width:0.294297;stroke-linecap:round;stroke-linejoin:round;paint-order:fill markers stroke;filter:url(#filter2417)"
       d="m 1651.1595,157.28939 h 63.0357 l -42.084,74.1093 h 80.0087 l -32.2214,63.36881 h -84.057 l -47.8075,83.52724 c -6.0258,10.52806 -5.4526,15.08272 0.7028,15.08272 h 74.7215 l -34.5726,60.40374 h -84.057 c -39.6881,0 -40.9535,-39.16307 -25.1163,-66.83305 l 52.7603,-92.18065 h -65.2356 l 36.2697,-63.36881 h 65.2356 z"
       id="path845-5-2-6"
       sodipodi:nodetypes="ccccccssccssccccc"
       transform="matrix(0.95206288,0,0,0.95201208,-71.720637,-48.5796)" />
    <path
       style="opacity:1;fill:#000000;fill-opacity:0.528037;fill-rule:evenodd;stroke-width:0.294297;stroke-linecap:round;stroke-linejoin:round;paint-order:fill markers stroke;filter:url(#filter2421)"
       d="m 1127.2272,393.37746 56.4402,-98.60996 c 10.8177,-18.90019 57.1482,-63.36881 97.7717,-63.36881 h 127.5432 c 53.3659,0 57.2988,31.22486 38.9009,63.36881 l -11.68,20.40691 c -31.1981,54.50792 -63.5988,54.50792 -106.3687,54.50792 h -109.4188 l 31.198,-54.50792 h 109.4188 l 11.6801,-20.40691 h -127.5432 l -56.4402,98.60996 h 202.7138 l -34.5726,60.40374 h -202.7138 c -53.6713,0 -37.4791,-41.97175 -26.9294,-60.40374 z"
       id="path845-5-3"
       sodipodi:nodetypes="sssssssccccccccss"
       transform="matrix(0.95206288,0,0,0.95201208,-71.720637,-48.5796)" />
    <path
       style="opacity:1;fill:#000000;fill-opacity:1;fill-rule:evenodd;stroke-width:0.280181;stroke-linecap:round;stroke-linejoin:round;paint-order:fill markers stroke"
       d="m 363.56136,10.708143 h 60.01396 L 519.80526,290.11839 608.67865,10.708143 H 672.3079 L 554.44915,363.5425 h -75.19822 z"
       id="path845-5-1"
       sodipodi:nodetypes="cccccccc" />
    <path
       style="opacity:1;fill:#234a9b;fill-opacity:1;fill-rule:evenodd;stroke-width:0.280181;stroke-linecap:round;stroke-linejoin:round;paint-order:fill markers stroke"
       d="m 780.04381,10.708143 h 60.01395 L 887.32458,257.98981 1025.161,10.708143 h 63.6293 L 889.22585,363.5425 H 828.48881 L 780.98316,119.28367 644.83163,363.5425 h -62.9062 z"
       id="path845-5-2-8"
       sodipodi:nodetypes="ccccccccccc" />
    <path
       style="opacity:1;fill:#000000;fill-opacity:1;fill-rule:evenodd;stroke-width:0.280181;stroke-linecap:round;stroke-linejoin:round;paint-order:fill markers stroke"
       d="M 320.90084,10.708143 H 82.652601 c -46.27948,0 -69.775254,21.385866 -69.775254,62.179826 v 83.508951 c 0,46.22451 26.970524,60.37227 69.775254,60.37227 H 250.76403 v 83.14744 H 12.877347 V 363.5425 H 250.76403 c 46.58539,0 70.13681,-24.0293 70.13681,-63.62587 v -87.75709 c 0,-46.92758 -34.64418,-55.76262 -70.13681,-55.76262 H 82.652601 V 72.887969 H 320.90084 Z"
       id="path845-5-2-1-7"
       sodipodi:nodetypes="cssssccccsssscccc" />
    <path
       style="opacity:1;fill:#234a9b;fill-opacity:1;fill-rule:evenodd;stroke-width:0.280181;stroke-linecap:round;stroke-linejoin:round;paint-order:fill markers stroke"
       d="m 1482.572,81.278719 h 60.014 l -40.0666,70.552941 h 76.1733 l -30.6768,60.32788 h -80.0276 l -45.5157,79.51894 c -5.737,10.02284 -5.1913,14.35893 0.669,14.35893 h 71.1396 l -32.9152,57.50509 h -80.0275 c -37.7856,0 -38.9903,-37.28371 -23.9123,-63.62587 l 50.2311,-87.75709 h -62.1084 l 34.531,-60.32788 h 62.1083 z"
       id="path845-5-2-6-9"
       sodipodi:nodetypes="ccccccssccssccccc" />
    <path
       style="opacity:1;fill:#234a9b;fill-opacity:1;fill-rule:evenodd;stroke-width:0.280181;stroke-linecap:round;stroke-linejoin:round;paint-order:fill markers stroke"
       d="m 983.75554,306.03741 53.73466,-93.87787 c 10.2992,-17.99321 54.4087,-60.32788 93.0848,-60.32788 h 121.4291 c 50.8078,0 54.5521,29.72645 37.0361,60.32788 l -11.1201,19.42762 c -29.7026,51.8922 -60.55,51.8922 -101.2697,51.8922 h -104.1735 l 29.7025,-51.8922 h 104.1735 l 11.1202,-19.42762 H 1096.044 l -53.7346,93.87787 h 192.9962 l -32.9153,57.50509 H 1009.394 c -51.09836,0 -35.68236,-39.95761 -25.63846,-57.50509 z"
       id="path845-5-3-1"
       sodipodi:nodetypes="sssssssccccccccss" />
    <path
       style="fill:#000000;fill-opacity:1;fill-rule:evenodd;stroke-width:0.147414;stroke-linecap:round;stroke-linejoin:round;paint-order:fill markers stroke"
       d="m 15.378617,456.47874 v -34.04066 h 21.540154 21.54017 v 3.86598 3.86597 h -16.92081 -16.92084 v 10.09169 10.09171 h 16.21788 16.21787 v 3.86597 3.86598 h -16.21787 -16.21788 v 12.35103 12.35105 h 17.32251 17.32249 v 3.86597 3.86597 H 37.320461 15.378617 Z"
       id="path841" />
    <path
       style="fill:#000000;fill-opacity:1;fill-rule:evenodd;stroke-width:0.147414;stroke-linecap:round;stroke-linejoin:round;paint-order:fill markers stroke"
       d="m 108.75592,455.04783 0.0251,-35.47158 4.19255,-0.0262 4.19256,-0.0262 v 35.49777 35.49779 h -4.21782 -4.21779 z"
       id="path843" />
    <path
       style="fill:#000000;fill-opacity:1;fill-rule:evenodd;stroke-width:0.147414;stroke-linecap:round;stroke-linejoin:round;paint-order:fill markers stroke"
       d="m 239.70259,456.47389 v -34.04551 l 12.12576,0.035 c 10.82252,0.0311 12.27144,0.0538 13.48141,0.21037 6.35071,0.82163 10.64323,2.79702 13.88956,6.39187 1.82009,2.01551 3.22995,4.87928 3.88055,7.88242 0.85398,3.94197 0.75781,8.95715 -0.24312,12.67461 -1.92847,7.16246 -7.23748,11.59754 -15.59744,13.02988 -2.5321,0.43384 -3.35134,0.47288 -10.99247,0.5239 l -7.406,0.0495 v 13.64675 13.64676 h -4.56913 -4.56912 z m 24.54705,-1.18142 c 1.84073,-0.39814 3.37067,-0.98857 4.55308,-1.75712 3.61341,-2.34864 5.31495,-6.15905 5.11341,-11.45082 -0.0667,-1.75479 -0.26145,-2.9592 -0.68202,-4.22065 -1.3394,-4.01722 -4.36343,-6.58596 -8.81768,-7.49014 -1.70997,-0.34711 -3.39615,-0.41451 -9.6006,-0.38373 l -5.9248,0.0294 -0.0254,12.78328 -0.0254,12.78326 7.20554,-0.0387 c 6.91859,-0.0372 7.2453,-0.0473 8.20405,-0.25473 z"
       id="path845" />
    <path
       style="fill:#000000;fill-opacity:1;fill-rule:evenodd;stroke-width:0.147414;stroke-linecap:round;stroke-linejoin:round;paint-order:fill markers stroke"
       d="m 345.18499,491.82145 c -4.5969,-0.35776 -7.99545,-1.82562 -10.72022,-4.63018 -2.72145,-2.80111 -4.33444,-6.57705 -5.01259,-11.73411 -0.29993,-2.28095 -0.36254,-6.27512 -0.33285,-21.23776 l 0.0292,-14.761 4.19254,-0.0262 4.19254,-0.0262 9.1e-4,15.99219 c 5.3e-4,9.99192 0.0393,16.44429 0.10333,17.19717 0.52894,6.23075 2.83639,9.96598 7.01473,11.35528 1.4803,0.49221 2.24345,0.59476 4.37903,0.58846 1.34346,-0.004 2.19026,-0.0567 2.86198,-0.17796 3.03761,-0.5487 5.50419,-1.82675 7.44406,-3.85707 2.05755,-2.15349 3.24649,-4.60832 3.92768,-8.10956 0.21247,-1.09201 0.21556,-1.28538 0.27107,-17.02032 l 0.0563,-15.91578 h 4.16747 4.16742 l 0.0252,25.53051 0.0252,25.53049 h -4.21783 -4.21786 v -3.87651 -3.87653 l -0.56381,0.78877 c -2.95251,4.13053 -6.4289,6.64452 -10.66196,7.71034 -2.05737,0.51801 -4.83618,0.73464 -7.13181,0.55599 z"
       id="path847" />
    <path
       style="fill:#000000;fill-opacity:1;fill-rule:evenodd;stroke-width:0.147414;stroke-linecap:round;stroke-linejoin:round;paint-order:fill markers stroke"
       d="m 424.01731,464.9638 v -25.5556 h 4.21766 4.21764 v 3.98137 3.98137 l 0.56782,-0.7932 c 1.40637,-1.96452 3.27775,-3.88206 4.962,-5.08438 3.35352,-2.39396 7.85485,-3.54068 12.5879,-3.20682 3.60434,0.25425 6.32084,1.08952 8.68837,2.6715 4.35375,2.90915 6.79927,7.93389 7.4317,15.26966 0.0662,0.76801 0.10426,7.20438 0.10492,17.74834 l 8.9e-4,16.54336 h -4.16744 -4.16743 l -9.1e-4,-15.58941 c -8.9e-4,-18.04924 -0.0267,-18.73615 -0.80467,-21.50558 -0.62186,-2.21414 -1.46377,-3.74124 -2.80474,-5.08731 -1.31748,-1.32252 -2.81815,-2.10442 -4.92529,-2.56626 -1.15897,-0.25404 -4.53751,-0.26106 -5.87461,-0.0122 -2.20413,0.41019 -4.2316,1.24572 -5.72915,2.361 -0.85327,0.63548 -2.11153,1.87371 -2.71455,2.67138 -1.42665,1.8871 -2.41619,4.36425 -2.91878,7.30671 -0.16415,0.96101 -0.18052,2.26216 -0.2103,16.73187 l -0.0324,15.68983 h -4.21436 -4.21438 z"
       id="path849" />
    <path
       style="fill:#000000;fill-opacity:1;fill-rule:evenodd;stroke-width:0.147414;stroke-linecap:round;stroke-linejoin:round;paint-order:fill markers stroke"
       d="m 532.5733,490.45539 c -0.1657,-0.0187 -0.77574,-0.084 -1.35569,-0.14497 -3.10557,-0.32713 -5.82361,-1.18224 -7.64233,-2.40429 -2.91898,-1.96132 -4.45089,-5.76926 -4.80621,-11.94688 -0.0588,-1.02357 -0.1017,-7.65841 -0.10253,-15.89068 l -0.002,-14.13341 h -3.06281 -3.06282 v -3.26347 -3.26349 h 3.06282 3.06281 v -7.22987 -7.22988 h 4.21766 4.21765 v 7.22931 7.22932 l 8.66124,0.0256 8.66126,0.0256 0.0265,3.23783 0.0265,3.23783 -8.66265,0.0256 -8.66263,0.0256 0.002,15.11244 c 0.002,13.72093 0.0174,15.22348 0.1736,16.31815 0.5177,3.63168 1.31839,4.82337 3.74106,5.56789 1.52066,0.46731 2.2936,0.52322 8.00852,0.57915 l 5.39758,0.0527 v 3.45177 3.45177 l -5.79928,-0.0149 c -3.1896,-0.009 -5.93483,-0.0304 -6.10051,-0.0489 z"
       id="path851" />
    <path
       style="fill:#000000;fill-opacity:1;fill-rule:evenodd;stroke-width:0.147414;stroke-linecap:round;stroke-linejoin:round;paint-order:fill markers stroke"
       d="m 608.49267,491.82339 c -8.43503,-0.56234 -14.7244,-4.61655 -18.37935,-11.84756 -0.41563,-0.82228 -1.29401,-3.10216 -1.60042,-4.15392 -0.92818,-3.18609 -1.40874,-6.85499 -1.4091,-10.7577 -9.1e-4,-8.86431 2.29442,-15.68121 6.87584,-20.42149 1.61776,-1.67387 3.2963,-2.93363 5.23802,-3.93118 4.11902,-2.11613 9.6006,-2.9349 15.0923,-2.2543 3.94528,0.48896 7.42545,1.8372 10.31965,3.99797 5.13265,3.83193 8.19329,9.7928 9.1339,17.78909 0.22345,1.89939 0.25376,7.41421 0.0505,9.18798 -0.56795,4.95663 -1.81256,8.95867 -3.81915,12.28051 -3.41261,5.64943 -8.95403,9.14479 -15.77826,9.95241 -1.63738,0.19378 -4.1489,0.26319 -5.72393,0.15819 z m 4.71976,-7.28205 c 2.74066,-0.52758 4.85576,-1.67417 6.77314,-3.6717 3.10163,-3.23129 4.80111,-7.93483 5.06712,-14.02392 0.34034,-7.79148 -1.37867,-13.70319 -5.13423,-17.65662 -1.73944,-1.83109 -3.88834,-3.02681 -6.41144,-3.5676 -1.50464,-0.32247 -4.39788,-0.32449 -5.89139,-0.005 -4.15768,0.89197 -7.30401,3.47855 -9.36201,7.69644 -2.43271,4.98589 -3.02975,12.99671 -1.44822,19.4321 0.59146,2.40675 1.4388,4.40817 2.63575,6.22571 0.66183,1.00497 2.5967,2.99732 3.49388,3.59764 1.77757,1.18942 3.82674,1.90319 6.21038,2.16319 0.78396,0.0855 3.22605,-0.0292 4.06702,-0.19116 z"
       id="path853" />
    <path
       style="fill:#000000;fill-opacity:1;fill-rule:evenodd;stroke-width:0.147414;stroke-linecap:round;stroke-linejoin:round;paint-order:fill markers stroke"
       d="m 784.12086,496.469 -3e-4,-13.53093 -0.35224,0.58412 c -2.83891,4.70777 -7.28756,7.50649 -13.05336,8.2121 -1.42738,0.17467 -4.68494,0.15022 -5.94132,-0.0446 -3.95689,-0.61361 -7.16162,-2.17438 -9.9891,-4.86494 -5.21202,-4.95964 -7.91853,-12.39729 -7.91853,-21.76054 0,-8.03857 1.9579,-14.57892 5.83526,-19.49274 4.01627,-5.08979 9.56236,-7.62086 16.05554,-7.3272 6.6175,0.29927 11.34321,2.82867 14.69623,7.86604 l 0.61788,0.92823 0.0503,-3.79005 0.0503,-3.79009 4.19255,-0.0262 4.19254,-0.0262 v 35.29695 35.29696 h -4.21764 -4.21765 L 784.121,496.469 Z m -11.68938,-11.8283 c 2.61442,-0.45589 4.78744,-1.64375 6.71883,-3.67282 2.50719,-2.63394 4.07029,-6.36118 4.73949,-11.30129 0.24935,-1.84083 0.24935,-7.3639 0,-9.20475 -0.66825,-4.9331 -2.24011,-8.66997 -4.76128,-11.31914 -1.92256,-2.02017 -3.93791,-3.12235 -6.71902,-3.67458 -1.34324,-0.26672 -4.06596,-0.2416 -5.43351,0.0502 -3.09743,0.66075 -5.38141,2.10763 -7.37013,4.66885 -2.07355,2.67049 -3.3414,6.17053 -3.84316,10.60948 -0.5785,5.11742 -0.0568,10.772 1.34342,14.56016 1.6199,4.38263 4.47663,7.47877 8.08577,8.76345 2.08299,0.74142 4.83705,0.93944 7.23959,0.5205 z"
       id="path855" />
    <path
       style="fill:#000000;fill-opacity:1;fill-rule:evenodd;stroke-width:0.147414;stroke-linecap:round;stroke-linejoin:round;paint-order:fill markers stroke"
       d="m 859.54367,491.82181 c -4.59502,-0.35807 -8.05207,-1.85885 -10.76164,-4.67187 -2.29682,-2.38451 -3.84051,-5.58669 -4.62023,-9.58406 -0.57833,-2.96487 -0.54754,-1.86896 -0.58334,-20.76078 l -0.0329,-17.3969 h 4.17041 4.17044 l 2.5e-4,15.79025 c 1.5e-4,9.68899 0.0394,16.31404 0.10185,17.14584 0.32516,4.33738 1.40986,7.30579 3.41261,9.33898 1.28776,1.30734 2.54886,2.03345 4.33788,2.4976 2.44461,0.63424 5.92952,0.50758 8.51589,-0.30951 4.15287,-1.31199 7.31336,-4.54188 8.72483,-8.91628 0.3185,-0.98725 0.42138,-1.39838 0.6909,-2.7614 0.13926,-0.70417 0.16602,-2.77414 0.21685,-16.7693 l 0.058,-15.96598 4.1926,-0.0262 4.19251,-0.0262 v 25.5567 25.55671 h -4.2164 -4.21652 l -0.0265,-3.84087 -0.0265,-3.84086 -0.34242,0.50208 c -2.53283,3.71418 -6.02315,6.44833 -9.72402,7.61735 -2.41623,0.76325 -5.4495,1.08176 -8.23489,0.8647 z"
       id="path857" />
    <path
       style="fill:#000000;fill-opacity:1;fill-rule:evenodd;stroke-width:0.147414;stroke-linecap:round;stroke-linejoin:round;paint-order:fill markers stroke"
       d="m 957.49984,491.81962 c -12.5612,-0.6952 -21.3794,-8.0213 -23.6367,-19.63694 -0.422,-2.17201 -0.5765,-3.97041 -0.5772,-6.71681 0,-3.33591 0.2568,-5.82601 0.8764,-8.4763 1.7461,-7.46817 6.1518,-13.23024 12.4584,-16.2935 5.8301,-2.8319 13.8438,-3.28597 20.0174,-1.13427 6.1544,2.145 10.8447,7.36902 12.7973,14.25378 0.8574,3.02379 1.0644,4.75541 1.1312,9.46627 l 0.053,3.74046 h -19.2923 -19.2922 v 0.42676 c 0.01,1.29828 0.5476,4.18759 1.1234,5.99352 2.0423,6.40387 6.56,10.10071 13.5862,11.11758 1.6507,0.23888 5.5443,0.2372 7.632,-0.004 4.522,-0.521 8.9948,-1.87043 13.2285,-3.99107 0.5374,-0.26924 1.0007,-0.48951 1.0292,-0.48951 0.029,0 0.051,1.77846 0.051,3.95215 v 3.95216 l -1.4308,0.55509 c -3.834,1.48722 -8.2673,2.60206 -12.0757,3.03663 -2.7517,0.31399 -5.1073,0.38983 -7.6822,0.24731 z m 14.6802,-32.1778 c -0.2791,-7.10764 -4.0673,-12.35224 -10.0113,-13.85999 -3.6962,-0.93756 -8.7431,-0.3584 -11.9995,1.37698 -1.8149,0.9672 -3.5275,2.43054 -4.6761,3.99567 -1.6403,2.23504 -2.759,5.30609 -3.1376,8.61317 l -0.084,0.72835 14.9696,-0.0254 14.9696,-0.0254 z"
       id="path859" />
    <path
       style="fill:#000000;fill-opacity:1;fill-rule:evenodd;stroke-width:0.147414;stroke-linecap:round;stroke-linejoin:round;paint-order:fill markers stroke"
       d="m 1116.5536,491.81587 c -5.1652,-0.29542 -10.5854,-1.41245 -16.609,-3.42292 l -2.4352,-0.81278 v -4.75071 -4.75072 l 0.8285,0.4543 c 4.9993,2.74154 10.5966,4.72412 15.4049,5.45664 4.1748,0.636 8.9245,0.50376 12.257,-0.34126 2.5585,-0.64873 4.8773,-1.82981 6.3931,-3.25619 2.1896,-2.06041 3.308,-5.12349 3.1398,-8.60022 -0.2165,-4.47859 -2.1649,-7.31754 -6.404,-9.3312 -2.2634,-1.07512 -4.1642,-1.60186 -9.6272,-2.6679 -4.5328,-0.8845 -6.4795,-1.35384 -8.7367,-2.10627 -7.6764,-2.55903 -11.4876,-6.10838 -12.9958,-12.10292 -0.8282,-3.29158 -0.6771,-7.94577 0.3635,-11.19399 2.2725,-7.09473 8.4534,-11.57518 17.7538,-12.86953 1.8873,-0.26265 6.4729,-0.36253 8.8955,-0.19377 4.8861,0.34038 9.8956,1.31616 15.0297,2.92754 l 1.2803,0.40187 v 4.4709 4.47094 l -0.2259,-0.0701 c -0.1243,-0.0385 -0.4293,-0.1716 -0.6779,-0.29581 -0.2485,-0.12422 -1.0392,-0.47609 -1.7573,-0.78195 -7.888,-3.36016 -14.7231,-4.448 -21.2363,-3.37987 -2.2526,0.36943 -4.3019,1.08267 -5.958,2.07373 -1.606,0.96091 -3.2613,2.82919 -3.9346,4.4407 -1.1468,2.74447 -1.0581,6.6451 0.2056,9.04156 0.7976,1.51256 1.8451,2.46472 3.7094,3.37164 2.2623,1.10066 3.9867,1.57602 10.7325,2.95877 5.2345,1.07296 6.7093,1.41794 8.4478,1.97613 8.7446,2.80785 13.431,7.76634 14.5504,15.39511 0.572,3.89842 0.1138,8.34184 -1.196,11.59793 -2.6345,6.54949 -9.0083,10.53274 -18.6266,11.64074 -1.5027,0.17311 -5.0033,0.36243 -6.3264,0.34217 -0.4695,-0.008 -1.4797,-0.0488 -2.2449,-0.0925 z"
       id="path861" />
    <path
       style="fill:#000000;fill-opacity:1;fill-rule:evenodd;stroke-width:0.147414;stroke-linecap:round;stroke-linejoin:round;paint-order:fill markers stroke"
       d="m 1215.4647,491.82131 c -6.9458,-0.37571 -12.5845,-2.6517 -16.9084,-6.82473 -3.5948,-3.46945 -5.8462,-7.81781 -6.8362,-13.20457 -1.0978,-5.97169 -0.4888,-13.42329 1.5168,-18.56395 2.0133,-5.16037 5.5871,-9.36676 10.1523,-11.94936 4.9556,-2.80343 12.0333,-3.77615 18.3015,-2.51522 3.7713,0.75864 7.0732,2.45982 9.7277,5.01194 3.9216,3.77031 6.1312,8.51601 6.8961,14.81202 0.1089,0.89639 0.1831,2.55475 0.219,4.89524 l 0.054,3.53963 h -19.3293 -19.3295 l 0.042,0.52718 c 0.6064,7.60242 3.7402,12.87156 9.1749,15.42634 1.7395,0.81768 3.5929,1.3301 5.9171,1.63584 1.2372,0.16274 5.3404,0.15938 6.8286,-0.006 4.6628,-0.51692 8.7493,-1.7012 13.2303,-3.83419 l 1.431,-0.68113 v 3.95125 3.95121 l -1.3282,0.52306 c -4.8112,1.89479 -9.924,3.01135 -15.1407,3.30657 -1.9221,0.1088 -2.584,0.10857 -4.6193,-0.002 z m 14.6309,-32.50584 c -0.2106,-4.06403 -1.5526,-7.43962 -3.9711,-9.98834 -2.4159,-2.54607 -5.2563,-3.78076 -9.1034,-3.95697 -4.8578,-0.22252 -9.2388,1.26529 -12.1451,4.1245 -2.5812,2.53948 -4.0946,5.96996 -4.6207,10.47349 l -0.062,0.52718 h 14.9813 14.9816 z"
       id="path863" />
    <path
       style="fill:#000000;fill-opacity:1;fill-rule:evenodd;stroke-width:0.147414;stroke-linecap:round;stroke-linejoin:round;paint-order:fill markers stroke"
       d="m 1360.4047,456.57485 c -7.1248,-18.66833 -12.9692,-33.98614 -12.9876,-34.03958 -0.021,-0.0618 1.7199,-0.0972 4.776,-0.0972 h 4.8095 l 10.789,28.67303 c 10.5898,28.14309 10.7917,28.66691 10.9252,28.34212 0.075,-0.182 4.9172,-13.00579 10.7608,-28.49731 5.8434,-15.49152 10.6561,-28.24546 10.6949,-28.34211 0.066,-0.16391 0.3907,-0.17573 4.8296,-0.17573 2.6175,0 4.7581,0.0339 4.7568,0.0753 0,0.0413 -5.8247,15.34843 -12.9408,34.01557 l -12.9386,33.94025 -5.2603,0.024 -5.2603,0.024 z"
       id="path865" />
    <path
       style="fill:#000000;fill-opacity:1;fill-rule:evenodd;stroke-width:0.147414;stroke-linecap:round;stroke-linejoin:round;paint-order:fill markers stroke"
       d="m 1469.6336,491.81962 c -9.8162,-0.54328 -17.423,-5.12054 -21.3235,-12.83085 -2.0341,-4.02112 -2.8937,-8.0566 -2.891,-13.5731 0.01,-6.85875 1.4282,-12.30107 4.4037,-16.81951 3.7976,-5.76712 9.5351,-9.25117 16.6942,-10.13742 5.3164,-0.65816 10.4871,0.0623 14.3873,2.00467 5.7886,2.8828 9.7328,8.34118 11.1735,15.46305 0.4787,2.36576 0.5753,3.50854 0.6261,7.4056 l 0.048,3.69025 h -19.2913 -19.2916 v 0.42676 c 0,0.23472 0.068,0.92087 0.148,1.52478 1.0145,7.62311 4.5,12.46219 10.5474,14.64309 0.9937,0.35837 2.6104,0.73784 4.0142,0.9422 1.6486,0.24002 5.539,0.23883 7.6319,-0.002 4.4986,-0.5183 9.0341,-1.88271 13.1783,-3.96447 0.565,-0.28388 1.0509,-0.51614 1.0795,-0.51614 0.029,0 0.051,1.77882 0.051,3.95292 v 3.9529 l -1.5817,0.60583 c -4.9902,1.91145 -9.7236,2.93278 -14.9876,3.2339 -1.9274,0.11024 -2.5939,0.10992 -4.6194,-0.002 z m 14.6961,-31.39979 c 0.091,-0.14589 -0.1373,-2.59726 -0.3425,-3.69007 -1.0175,-5.42006 -4.46,-9.44547 -9.2688,-10.83818 -3.8283,-1.10873 -9.1508,-0.52 -12.6775,1.40227 -2.3828,1.29887 -4.4854,3.50702 -5.7488,6.03748 -0.8325,1.66764 -1.498,3.98434 -1.7622,6.13475 l -0.1264,1.02925 h 14.9398 c 8.2168,0 14.9608,-0.034 14.9864,-0.0755 z"
       id="path867" />
  </g>
</svg>
